<svg id="Laag_1" data-name="Laag 1" xmlns="http://www.w3.org/2000/svg" viewBox="0 0 314.07 289.97"><defs><style>.cls-1{fill:#9dd5d3;}</style></defs><title>Links Alien Cyan</title><path class="cls-1" d="M0,22H52.78s11.6-1.16,11.6-10.44S49.34,0,49.34,0H0Z"/><path class="cls-1" d="M303.34,114.24H228c-8.7,0-9.17-8.7-9.17-8.7V84.09c0-8.7,9.17-8.12,9.17-8.12h31.89s8.7.58,8.7-5.8-8.7-8.12-8.7-8.12H228c-9.28,0-9.39-5.8-9.39-5.8v-5.6s2.32-18.56-8.12-18.56-11.6,18.56-11.6,18.56V84.28s-1.16,10.44-13.92,10.44H145.5s-10.44,0-10.44-10.44V25.13s0-24.36-11.6-24.36S113,24,113,24V49.52s1.16,13.88-9.24,13.88H0V223.85H54.56s7,.58,7,6.38v22S60.94,261,51.08,261H5.27A16.63,16.63,0,0,0,0,262v12.81a14.59,14.59,0,0,0,4.11,1.4H67.9s9.86,1.6,9.86-8.26v-52.8s-.94-9.28,8.23-9.28h26s7,.58,7,7.54v26.67s1.16,8.12,5.8,8.12h15s5.8-1.16,5.8,5.22v31.32s.58,5.22,7,5.22h45.2s11,.58,11-6.38-11.6-8.7-11.6-8.7H172.86s-8.7,1.74-8.7-8.12V217.47s-1.16-9.28,9.28-9.28h66.11l4.64-1.16h22.59c9.86,0,9.28,10.44,9.28,10.44V236s1.74,9.27,9.28,9.27,7-7.53,7-7.53V187.89c0-5.8-9.28-6.38-9.28-6.38H253.47c-8.7,0-8.12-9.86-8.12-9.86V145c0-11,11.6-11,11.6-11h48.71s8.41.58,8.41-9S303.34,114.24,303.34,114.24Z"/></svg>