<svg id="Laag_1" data-name="Laag 1" xmlns="http://www.w3.org/2000/svg" viewBox="0 0 366.38 281.65"><defs><style>.cls-1{fill:#edb8c0;}</style></defs><title>Rechts Alien Red</title><path class="cls-1" d="M366.38,88.41V13.53h-13.2s-13.52,2.26-13.52,13.53V53s1.31,11.27-9.39,11.27H250.82s-6.76-.56-6.76-6.19V36.64s.56-8.46,10.14-8.46h44.51s9.58,0,9.58-6.76-8.45-8-8.45-8h-62s-9.58-1.55-9.58,8V72.7s.92,9-8,9H195s-6.76-.56-6.76-7.32V48.47s-1.13-7.89-5.64-7.89H168s-5.63,1.13-5.63-5.07V5.08S161.77,0,155.57,0h-44s-10.71-.56-10.71,6.2,11.27,8.45,11.27,8.45H135.8s8.45-1.69,8.45,7.89V70.44s1.13,9-9,9H71.08l-4.51,1.12h-22c-9.58,0-9-10.14-9-10.14v-18s-1.69-9-9-9-6.76,7.32-6.76,7.32V99.2c0,5.63,9,6.2,9,6.2H57.55c8.45,0,7.89,9.57,7.89,9.57v25.92c0,10.71-11.27,10.71-11.27,10.71H6.84s-8.17-.57-8.17,8.73S9.09,170.75,9.09,170.75H82.38c8.45,0,8.91,8.46,8.91,8.46V200c0,8.46-8.91,7.89-8.91,7.89h-31s-8.45-.56-8.45,5.64,8.45,7.88,8.45,7.88h31c9,0,9.12,5.64,9.12,5.64v5.45s-2.25,18,7.89,18,11.27-18,11.27-18V199.85s1.13-10.15,13.52-10.15H162.5s10.14,0,10.14,10.15v57.47s0,23.66,11.27,23.66,10.14-22.54,10.14-22.54V233.65s-1.13-13.52,9-13.52H317.89s13.52-1.5,13.52,9.77v19.15s1.13,11.27-14.65,11.27H252.53s-11.27,1.13-11.27,10.14,14.65,11.27,14.65,11.27h80s16.9,2.26,16.9-11.27V237.78s1.13-13.52,13.53-13.52h0Z"/></svg>